<svg width="85" height="40" viewBox="0 0 85 40" fill="none" xmlns="http://www.w3.org/2000/svg">
<path d="M3.2399 33.5H13.1307C13.3502 33.5 13.544 33.3568 13.6086 33.147L15.3009 27.647C15.3998 27.3255 15.1594 27 14.823 27H10.7022C10.3585 27 10.1173 26.6612 10.2297 26.3364L14.3835 14.3364C14.4532 14.1351 14.6429 14 14.856 14H19.6181C19.8436 14 20.0412 13.8491 20.1005 13.6316L21.3278 9.13156C21.4145 8.81349 21.1751 8.5 20.8454 8.5H9.9599C9.09017 8.5 8.32013 9.06209 8.05506 9.89045L1.33506 30.8904C0.922087 32.181 1.88491 33.5 3.2399 33.5Z" fill="white"/>
<path d="M15.7108 38.8465L25.3882 8.8465C25.4548 8.63997 25.6471 8.5 25.8641 8.5H32.792C33.1374 8.5 33.3787 8.84175 33.2632 9.16721L22.6181 39.1672C22.5473 39.3667 22.3586 39.5 22.1469 39.5H16.1867C15.8474 39.5 15.6067 39.1694 15.7108 38.8465Z" fill="white"/>
<path d="M25.2367 38.8328L35.8819 8.8328C35.9527 8.6333 36.1414 8.5 36.3531 8.5H40.711C42.0802 8.5 43.0445 9.8448 42.6053 11.1416L33.115 39.1604C33.0463 39.3634 32.8558 39.5 32.6415 39.5H25.708C25.3626 39.5 25.1213 39.1582 25.2367 38.8328Z" fill="white"/>
<path d="M36.6981 38.8535L45.8917 8.8535C45.956 8.64343 46.15 8.5 46.3697 8.5H50.711C52.0802 8.5 53.0445 9.8448 52.6053 11.1416L43.115 39.1604C43.0463 39.3634 42.8558 39.5 42.6415 39.5H37.1762C36.84 39.5 36.5996 39.1749 36.6981 38.8535Z" fill="white"/>
<path d="M50.3939 30.3588L60.385 0.839702C60.4538 0.63665 60.6443 0.5 60.8586 0.5H67.3199C67.6572 0.5 67.8978 0.827172 67.7971 1.14914L65.7029 7.85086C65.6022 8.17283 65.8428 8.5 66.1801 8.5H70.3454C70.6751 8.5 70.9145 8.81349 70.8278 9.13156L69.6005 13.6316C69.5412 13.8491 69.3436 14 69.1181 14H63.856C63.6429 14 63.4532 14.1351 63.3835 14.3364L59.2297 26.3364C59.1173 26.6612 59.3585 27 59.7022 27H64.75C65.1068 27 65.3488 27.363 65.2115 27.6923L63.1282 32.6923C63.0506 32.8786 62.8685 33 62.6667 33H52.2884C50.9194 33 49.955 31.6555 50.3939 30.3588Z" fill="white"/>
<path d="M75.7803 7.37873L77.4053 0.878732C77.461 0.656149 77.661 0.5 77.8904 0.5H82.8492C83.1777 0.5 83.417 0.811409 83.3323 1.12883L81.599 7.62883C81.5406 7.84771 81.3424 8 81.1159 8H76.2654C75.9401 8 75.7014 7.69431 75.7803 7.37873Z" fill="white"/>
<path d="M67.2122 32.3457L72.8879 14.8457C72.9547 14.6396 73.1468 14.5 73.3635 14.5H78.8297C79.1641 14.5 79.4043 14.8219 79.309 15.1425L74.1063 32.6425C74.0432 32.8546 73.8483 33 73.627 33H67.6878C67.3482 33 67.1074 32.6688 67.2122 32.3457Z" fill="white"/>
<path d="M3.2399 33.5H13.1307C13.3502 33.5 13.544 33.3568 13.6086 33.147L15.3009 27.647C15.3998 27.3255 15.1594 27 14.823 27H10.7022C10.3585 27 10.1173 26.6612 10.2297 26.3364L14.3835 14.3364C14.4532 14.1351 14.6429 14 14.856 14H19.6181C19.8436 14 20.0412 13.8491 20.1005 13.6316L21.3278 9.13156C21.4145 8.81349 21.1751 8.5 20.8454 8.5H9.9599C9.09017 8.5 8.32013 9.06209 8.05506 9.89045L1.33506 30.8904C0.922087 32.181 1.88491 33.5 3.2399 33.5Z" stroke="black"/>
<path d="M15.7108 38.8465L25.3882 8.8465C25.4548 8.63997 25.6471 8.5 25.8641 8.5H32.792C33.1374 8.5 33.3787 8.84175 33.2632 9.16721L22.6181 39.1672C22.5473 39.3667 22.3586 39.5 22.1469 39.5H16.1867C15.8474 39.5 15.6067 39.1694 15.7108 38.8465Z" stroke="black"/>
<path d="M25.2367 38.8328L35.8819 8.8328C35.9527 8.6333 36.1414 8.5 36.3531 8.5H40.711C42.0802 8.5 43.0445 9.8448 42.6053 11.1416L33.115 39.1604C33.0463 39.3634 32.8558 39.5 32.6415 39.5H25.708C25.3626 39.5 25.1213 39.1582 25.2367 38.8328Z" stroke="black"/>
<path d="M36.6981 38.8535L45.8917 8.8535C45.956 8.64343 46.15 8.5 46.3697 8.5H50.711C52.0802 8.5 53.0445 9.8448 52.6053 11.1416L43.115 39.1604C43.0463 39.3634 42.8558 39.5 42.6415 39.5H37.1762C36.84 39.5 36.5996 39.1749 36.6981 38.8535Z" stroke="black"/>
<path d="M50.3939 30.3588L60.385 0.839702C60.4538 0.63665 60.6443 0.5 60.8586 0.5H67.3199C67.6572 0.5 67.8978 0.827172 67.7971 1.14914L65.7029 7.85086C65.6022 8.17283 65.8428 8.5 66.1801 8.5H70.3454C70.6751 8.5 70.9145 8.81349 70.8278 9.13156L69.6005 13.6316C69.5412 13.8491 69.3436 14 69.1181 14H63.856C63.6429 14 63.4532 14.1351 63.3835 14.3364L59.2297 26.3364C59.1173 26.6612 59.3585 27 59.7022 27H64.75C65.1068 27 65.3488 27.363 65.2115 27.6923L63.1282 32.6923C63.0506 32.8786 62.8685 33 62.6667 33H52.2884C50.9194 33 49.955 31.6555 50.3939 30.3588Z" stroke="black"/>
<path d="M75.7803 7.37873L77.4053 0.878732C77.461 0.656149 77.661 0.5 77.8904 0.5H82.8492C83.1777 0.5 83.417 0.811409 83.3323 1.12883L81.599 7.62883C81.5406 7.84771 81.3424 8 81.1159 8H76.2654C75.9401 8 75.7014 7.69431 75.7803 7.37873Z" stroke="black"/>
<path d="M67.2122 32.3457L72.8879 14.8457C72.9547 14.6396 73.1468 14.5 73.3635 14.5H78.8297C79.1641 14.5 79.4043 14.8219 79.309 15.1425L74.1063 32.6425C74.0432 32.8546 73.8483 33 73.627 33H67.6878C67.3482 33 67.1074 32.6688 67.2122 32.3457Z" stroke="black"/>
</svg>
